# xmcd CD database file
#
# Track frame offsets:
#	150
#	16040
#	37820
#	64060
#
# Disc length: 1257 seconds
#
# Revision: 0
# Processed by: cddbd v1.5PL3 Copyright (c) Steve Scherf et al.
# Submitted via: CDex 1.50beta8
#
DISCID=2204e704
DTITLE=犬神サーカス団 - 命みぢかし恋せよ人類！
DYEAR=2003
DGENRE=Rock
TTITLE0=命みぢかし恋せよ人類！
TTITLE1=すべてが昨日と変わらない
TTITLE2=恍惚の海
TTITLE3=ロックンロール・ウィドウ
EXTD=YEAR: 2003
EXTT0=
EXTT1=
EXTT2=
EXTT3=
PLAYORDER=
